  0
SECTION
  2
HEADER
  9
$ACADVER
  1
AC1009
  9
$FILLMODE
 70
 0
  9
$SPLFRAME
 70
 1
  9
$EXTMIN
 10
0
 20
0
 30
0.0
  9
$EXTMAX
 10
1058.33
 20
1058.33
 30
0.0
  0
ENDSEC
  0
SECTION
  2
TABLES
  0
TABLE
  2
LAYER
 70
1
  0
LAYER
  2
0
 70
     0
 62
     7
  6
CONTINUOUS
  0
ENDTAB
  0
ENDSEC
  0
SECTION
  2
ENTITIES
  0
LINE
  8
0
 62
     0
 10
303.846
 20
134.666
 30
0.0
 11
304.002
 21
134.659
 31
0.0
  0
LINE
  8
0
 62
     0
 10
304.002
 20
134.659
 30
0.0
 11
304.158
 21
134.641
 31
0.0
  0
LINE
  8
0
 62
     0
 10
304.158
 20
134.641
 30
0.0
 11
304.312
 21
134.611
 31
0.0
  0
LINE
  8
0
 62
     0
 10
304.312
 20
134.611
 30
0.0
 11
304.465
 21
134.568
 31
0.0
  0
LINE
  8
0
 62
     0
 10
304.465
 20
134.568
 30
0.0
 11
304.611
 21
134.513
 31
0.0
  0
LINE
  8
0
 62
     0
 10
304.611
 20
134.513
 30
0.0
 11
304.753
 21
134.448
 31
0.0
  0
LINE
  8
0
 62
     0
 10
304.753
 20
134.448
 30
0.0
 11
304.891
 21
134.371
 31
0.0
  0
LINE
  8
0
 62
     0
 10
304.891
 20
134.371
 30
0.0
 11
305.022
 21
134.284
 31
0.0
  0
LINE
  8
0
 62
     0
 10
305.022
 20
134.284
 30
0.0
 11
305.145
 21
134.186
 31
0.0
  0
LINE
  8
0
 62
     0
 10
305.145
 20
134.186
 30
0.0
 11
305.26
 21
134.08
 31
0.0
  0
LINE
  8
0
 62
     0
 10
305.26
 20
134.08
 30
0.0
 11
305.366
 21
133.965
 31
0.0
  0
LINE
  8
0
 62
     0
 10
305.366
 20
133.965
 30
0.0
 11
305.464
 21
133.842
 31
0.0
  0
LINE
  8
0
 62
     0
 10
305.464
 20
133.842
 30
0.0
 11
305.551
 21
133.711
 31
0.0
  0
LINE
  8
0
 62
     0
 10
305.551
 20
133.711
 30
0.0
 11
305.628
 21
133.573
 31
0.0
  0
LINE
  8
0
 62
     0
 10
305.628
 20
133.573
 30
0.0
 11
305.693
 21
133.431
 31
0.0
  0
LINE
  8
0
 62
     0
 10
305.693
 20
133.431
 30
0.0
 11
305.748
 21
133.285
 31
0.0
  0
LINE
  8
0
 62
     0
 10
305.748
 20
133.285
 30
0.0
 11
305.791
 21
133.132
 31
0.0
  0
LINE
  8
0
 62
     0
 10
305.791
 20
133.132
 30
0.0
 11
305.821
 21
132.979
 31
0.0
  0
LINE
  8
0
 62
     0
 10
305.821
 20
132.979
 30
0.0
 11
305.839
 21
132.822
 31
0.0
  0
LINE
  8
0
 62
     0
 10
305.839
 20
132.822
 30
0.0
 11
305.846
 21
132.665
 31
0.0
  0
LINE
  8
0
 62
     0
 10
305.846
 20
132.665
 30
0.0
 11
305.846
 21
2.36472
 31
0.0
  0
LINE
  8
0
 62
     0
 10
305.846
 20
2.36472
 30
0.0
 11
305.839
 21
2.209
 31
0.0
  0
LINE
  8
0
 62
     0
 10
305.839
 20
2.209
 30
0.0
 11
305.821
 21
2.05328
 31
0.0
  0
LINE
  8
0
 62
     0
 10
305.821
 20
2.05328
 30
0.0
 11
305.791
 21
1.89894
 31
0.0
  0
LINE
  8
0
 62
     0
 10
305.791
 20
1.89894
 30
0.0
 11
305.748
 21
1.74597
 31
0.0
  0
LINE
  8
0
 62
     0
 10
305.748
 20
1.74597
 30
0.0
 11
305.693
 21
1.5999
 31
0.0
  0
LINE
  8
0
 62
     0
 10
305.693
 20
1.5999
 30
0.0
 11
305.628
 21
1.45796
 31
0.0
  0
LINE
  8
0
 62
     0
 10
305.628
 20
1.45796
 30
0.0
 11
305.551
 21
1.32016
 31
0.0
  0
LINE
  8
0
 62
     0
 10
305.551
 20
1.32016
 30
0.0
 11
305.464
 21
1.18925
 31
0.0
  0
LINE
  8
0
 62
     0
 10
305.464
 20
1.18925
 30
0.0
 11
305.366
 21
1.0666
 31
0.0
  0
LINE
  8
0
 62
     0
 10
305.366
 20
1.0666
 30
0.0
 11
305.26
 21
0.950846
 31
0.0
  0
LINE
  8
0
 62
     0
 10
305.26
 20
0.950846
 30
0.0
 11
305.145
 21
0.844737
 31
0.0
  0
LINE
  8
0
 62
     0
 10
305.145
 20
0.844737
 30
0.0
 11
305.022
 21
0.746898
 31
0.0
  0
LINE
  8
0
 62
     0
 10
305.022
 20
0.746898
 30
0.0
 11
304.891
 21
0.660079
 31
0.0
  0
LINE
  8
0
 62
     0
 10
304.891
 20
0.660079
 30
0.0
 11
304.753
 21
0.582909
 31
0.0
  0
LINE
  8
0
 62
     0
 10
304.753
 20
0.582909
 30
0.0
 11
304.611
 21
0.518142
 31
0.0
  0
LINE
  8
0
 62
     0
 10
304.611
 20
0.518142
 30
0.0
 11
304.465
 21
0.463021
 31
0.0
  0
LINE
  8
0
 62
     0
 10
304.465
 20
0.463021
 30
0.0
 11
304.312
 21
0.420303
 31
0.0
  0
LINE
  8
0
 62
     0
 10
304.312
 20
0.420303
 30
0.0
 11
304.158
 21
0.389985
 31
0.0
  0
LINE
  8
0
 62
     0
 10
304.158
 20
0.389985
 30
0.0
 11
304.002
 21
0.372071
 31
0.0
  0
LINE
  8
0
 62
     0
 10
304.002
 20
0.372071
 30
0.0
 11
303.846
 21
0.365181
 31
0.0
  0
LINE
  8
0
 62
     0
 10
303.846
 20
0.365181
 30
0.0
 11
2.096
 21
0.365181
 31
0.0
  0
LINE
  8
0
 62
     0
 10
2.096
 20
0.365181
 30
0.0
 11
1.9389
 21
0.372071
 31
0.0
  0
LINE
  8
0
 62
     0
 10
1.9389
 20
0.372071
 30
0.0
 11
1.7818
 21
0.389985
 31
0.0
  0
LINE
  8
0
 62
     0
 10
1.7818
 20
0.389985
 30
0.0
 11
1.62884
 21
0.420303
 31
0.0
  0
LINE
  8
0
 62
     0
 10
1.62884
 20
0.420303
 30
0.0
 11
1.47588
 21
0.463021
 31
0.0
  0
LINE
  8
0
 62
     0
 10
1.47588
 20
0.463021
 30
0.0
 11
1.32981
 21
0.518142
 31
0.0
  0
LINE
  8
0
 62
     0
 10
1.32981
 20
0.518142
 30
0.0
 11
1.18787
 21
0.582909
 31
0.0
  0
LINE
  8
0
 62
     0
 10
1.18787
 20
0.582909
 30
0.0
 11
1.05006
 21
0.660079
 31
0.0
  0
LINE
  8
0
 62
     0
 10
1.05006
 20
0.660079
 30
0.0
 11
0.919152
 21
0.746898
 31
0.0
  0
LINE
  8
0
 62
     0
 10
0.919152
 20
0.746898
 30
0.0
 11
0.796505
 21
0.844737
 31
0.0
  0
LINE
  8
0
 62
     0
 10
0.796505
 20
0.844737
 30
0.0
 11
0.680752
 21
0.950846
 31
0.0
  0
LINE
  8
0
 62
     0
 10
0.680752
 20
0.950846
 30
0.0
 11
0.574643
 21
1.0666
 31
0.0
  0
LINE
  8
0
 62
     0
 10
0.574643
 20
1.0666
 30
0.0
 11
0.4768
 21
1.18925
 31
0.0
  0
LINE
  8
0
 62
     0
 10
0.4768
 20
1.18925
 30
0.0
 11
0.389985
 21
1.32016
 31
0.0
  0
LINE
  8
0
 62
     0
 10
0.389985
 20
1.32016
 30
0.0
 11
0.312815
 21
1.45796
 31
0.0
  0
LINE
  8
0
 62
     0
 10
0.312815
 20
1.45796
 30
0.0
 11
0.248047
 21
1.5999
 31
0.0
  0
LINE
  8
0
 62
     0
 10
0.248047
 20
1.5999
 30
0.0
 11
0.192925
 21
1.74597
 31
0.0
  0
LINE
  8
0
 62
     0
 10
0.192925
 20
1.74597
 30
0.0
 11
0.150206
 21
1.89894
 31
0.0
  0
LINE
  8
0
 62
     0
 10
0.150206
 20
1.89894
 30
0.0
 11
0.119889
 21
2.05328
 31
0.0
  0
LINE
  8
0
 62
     0
 10
0.119889
 20
2.05328
 30
0.0
 11
0.101975
 21
2.209
 31
0.0
  0
LINE
  8
0
 62
     0
 10
0.101975
 20
2.209
 30
0.0
 11
0.0950846
 21
2.36609
 31
0.0
  0
LINE
  8
0
 62
     0
 10
0.0950846
 20
2.36609
 30
0.0
 11
0.0950846
 21
132.665
 31
0.0
  0
LINE
  8
0
 62
     0
 10
0.0950846
 20
132.665
 30
0.0
 11
0.101975
 21
132.822
 31
0.0
  0
LINE
  8
0
 62
     0
 10
0.101975
 20
132.822
 30
0.0
 11
0.119889
 21
132.979
 31
0.0
  0
LINE
  8
0
 62
     0
 10
0.119889
 20
132.979
 30
0.0
 11
0.150206
 21
133.132
 31
0.0
  0
LINE
  8
0
 62
     0
 10
0.150206
 20
133.132
 30
0.0
 11
0.192925
 21
133.285
 31
0.0
  0
LINE
  8
0
 62
     0
 10
0.192925
 20
133.285
 30
0.0
 11
0.248047
 21
133.431
 31
0.0
  0
LINE
  8
0
 62
     0
 10
0.248047
 20
133.431
 30
0.0
 11
0.312815
 21
133.573
 31
0.0
  0
LINE
  8
0
 62
     0
 10
0.312815
 20
133.573
 30
0.0
 11
0.389985
 21
133.711
 31
0.0
  0
LINE
  8
0
 62
     0
 10
0.389985
 20
133.711
 30
0.0
 11
0.4768
 21
133.842
 31
0.0
  0
LINE
  8
0
 62
     0
 10
0.4768
 20
133.842
 30
0.0
 11
0.574643
 21
133.965
 31
0.0
  0
LINE
  8
0
 62
     0
 10
0.574643
 20
133.965
 30
0.0
 11
0.680752
 21
134.08
 31
0.0
  0
LINE
  8
0
 62
     0
 10
0.680752
 20
134.08
 30
0.0
 11
0.796505
 21
134.186
 31
0.0
  0
LINE
  8
0
 62
     0
 10
0.796505
 20
134.186
 30
0.0
 11
0.919152
 21
134.284
 31
0.0
  0
LINE
  8
0
 62
     0
 10
0.919152
 20
134.284
 30
0.0
 11
1.05006
 21
134.371
 31
0.0
  0
LINE
  8
0
 62
     0
 10
1.05006
 20
134.371
 30
0.0
 11
1.18787
 21
134.448
 31
0.0
  0
LINE
  8
0
 62
     0
 10
1.18787
 20
134.448
 30
0.0
 11
1.32981
 21
134.513
 31
0.0
  0
LINE
  8
0
 62
     0
 10
1.32981
 20
134.513
 30
0.0
 11
1.47588
 21
134.568
 31
0.0
  0
LINE
  8
0
 62
     0
 10
1.47588
 20
134.568
 30
0.0
 11
1.62884
 21
134.611
 31
0.0
  0
LINE
  8
0
 62
     0
 10
1.62884
 20
134.611
 30
0.0
 11
1.7818
 21
134.641
 31
0.0
  0
LINE
  8
0
 62
     0
 10
1.7818
 20
134.641
 30
0.0
 11
1.9389
 21
134.659
 31
0.0
  0
LINE
  8
0
 62
     0
 10
1.9389
 20
134.659
 30
0.0
 11
2.096
 21
134.666
 31
0.0
  0
LINE
  8
0
 62
     0
 10
2.096
 20
134.666
 30
0.0
 11
303.846
 21
134.666
 31
0.0
  0
LINE
  8
0
 62
     0
 10
86.4387
 20
26.8911
 30
0.0
 11
86.4387
 21
22.1905
 31
0.0
  0
LINE
  8
0
 62
     0
 10
86.4387
 20
22.1905
 30
0.0
 11
84.9133
 21
22.1905
 31
0.0
  0
LINE
  8
0
 62
     0
 10
84.9133
 20
22.1905
 30
0.0
 11
84.9133
 21
25.422
 31
0.0
  0
LINE
  8
0
 62
     0
 10
84.9133
 20
25.422
 30
0.0
 11
83.1882
 21
25.422
 31
0.0
  0
LINE
  8
0
 62
     0
 10
83.1882
 20
25.422
 30
0.0
 11
83.1882
 21
26.3412
 31
0.0
  0
LINE
  8
0
 62
     0
 10
83.1882
 20
26.3412
 30
0.0
 11
79.889
 21
26.3412
 31
0.0
  0
LINE
  8
0
 62
     0
 10
79.889
 20
26.3412
 30
0.0
 11
79.889
 21
25.422
 31
0.0
  0
LINE
  8
0
 62
     0
 10
79.889
 20
25.422
 30
0.0
 11
78.1636
 21
25.422
 31
0.0
  0
LINE
  8
0
 62
     0
 10
78.1636
 20
25.422
 30
0.0
 11
78.1636
 21
22.1905
 31
0.0
  0
LINE
  8
0
 62
     0
 10
78.1636
 20
22.1905
 30
0.0
 11
77.3384
 21
22.1905
 31
0.0
  0
LINE
  8
0
 62
     0
 10
77.3384
 20
22.1905
 30
0.0
 11
77.3384
 21
19.3918
 31
0.0
  0
LINE
  8
0
 62
     0
 10
77.3384
 20
19.3918
 30
0.0
 11
78.1636
 21
19.3918
 31
0.0
  0
LINE
  8
0
 62
     0
 10
78.1636
 20
19.3918
 30
0.0
 11
78.1636
 21
13.1217
 31
0.0
  0
LINE
  8
0
 62
     0
 10
78.1636
 20
13.1217
 30
0.0
 11
79.889
 21
13.1217
 31
0.0
  0
LINE
  8
0
 62
     0
 10
79.889
 20
13.1217
 30
0.0
 11
79.889
 21
12.1419
 31
0.0
  0
LINE
  8
0
 62
     0
 10
79.889
 20
12.1419
 30
0.0
 11
83.1882
 21
12.1419
 31
0.0
  0
LINE
  8
0
 62
     0
 10
83.1882
 20
12.1419
 30
0.0
 11
83.1882
 21
13.1217
 31
0.0
  0
LINE
  8
0
 62
     0
 10
83.1882
 20
13.1217
 30
0.0
 11
84.9133
 21
13.1217
 31
0.0
  0
LINE
  8
0
 62
     0
 10
84.9133
 20
13.1217
 30
0.0
 11
84.9133
 21
17.592
 31
0.0
  0
LINE
  8
0
 62
     0
 10
84.9133
 20
17.592
 30
0.0
 11
86.4387
 21
17.592
 31
0.0
  0
LINE
  8
0
 62
     0
 10
86.4387
 20
17.592
 30
0.0
 11
86.4387
 21
12.8916
 31
0.0
  0
LINE
  8
0
 62
     0
 10
86.4387
 20
12.8916
 30
0.0
 11
100.438
 21
12.8916
 31
0.0
  0
LINE
  8
0
 62
     0
 10
100.438
 20
12.8916
 30
0.0
 11
100.438
 21
17.592
 31
0.0
  0
LINE
  8
0
 62
     0
 10
100.438
 20
17.592
 30
0.0
 11
101.964
 21
17.592
 31
0.0
  0
LINE
  8
0
 62
     0
 10
101.964
 20
17.592
 30
0.0
 11
101.964
 21
13.1217
 31
0.0
  0
LINE
  8
0
 62
     0
 10
101.964
 20
13.1217
 30
0.0
 11
103.689
 21
13.1217
 31
0.0
  0
LINE
  8
0
 62
     0
 10
103.689
 20
13.1217
 30
0.0
 11
103.689
 21
12.1419
 31
0.0
  0
LINE
  8
0
 62
     0
 10
103.689
 20
12.1419
 30
0.0
 11
106.988
 21
12.1419
 31
0.0
  0
LINE
  8
0
 62
     0
 10
106.988
 20
12.1419
 30
0.0
 11
106.988
 21
13.1217
 31
0.0
  0
LINE
  8
0
 62
     0
 10
106.988
 20
13.1217
 30
0.0
 11
108.713
 21
13.1217
 31
0.0
  0
LINE
  8
0
 62
     0
 10
108.713
 20
13.1217
 30
0.0
 11
108.713
 21
19.3918
 31
0.0
  0
LINE
  8
0
 62
     0
 10
108.713
 20
19.3918
 30
0.0
 11
109.539
 21
19.3918
 31
0.0
  0
LINE
  8
0
 62
     0
 10
109.539
 20
19.3918
 30
0.0
 11
109.539
 21
22.1905
 31
0.0
  0
LINE
  8
0
 62
     0
 10
109.539
 20
22.1905
 30
0.0
 11
108.713
 21
22.1905
 31
0.0
  0
LINE
  8
0
 62
     0
 10
108.713
 20
22.1905
 30
0.0
 11
108.713
 21
25.422
 31
0.0
  0
LINE
  8
0
 62
     0
 10
108.713
 20
25.422
 30
0.0
 11
106.988
 21
25.422
 31
0.0
  0
LINE
  8
0
 62
     0
 10
106.988
 20
25.422
 30
0.0
 11
106.988
 21
26.3412
 31
0.0
  0
LINE
  8
0
 62
     0
 10
106.988
 20
26.3412
 30
0.0
 11
103.689
 21
26.3412
 31
0.0
  0
LINE
  8
0
 62
     0
 10
103.689
 20
26.3412
 30
0.0
 11
103.689
 21
25.422
 31
0.0
  0
LINE
  8
0
 62
     0
 10
103.689
 20
25.422
 30
0.0
 11
101.964
 21
25.422
 31
0.0
  0
LINE
  8
0
 62
     0
 10
101.964
 20
25.422
 30
0.0
 11
101.964
 21
22.1905
 31
0.0
  0
LINE
  8
0
 62
     0
 10
101.964
 20
22.1905
 30
0.0
 11
100.438
 21
22.1905
 31
0.0
  0
LINE
  8
0
 62
     0
 10
100.438
 20
22.1905
 30
0.0
 11
100.438
 21
26.8911
 31
0.0
  0
LINE
  8
0
 62
     0
 10
100.438
 20
26.8911
 30
0.0
 11
86.4387
 21
26.8911
 31
0.0
  0
LINE
  8
0
 62
     0
 10
134.064
 20
26.8911
 30
0.0
 11
134.064
 21
22.1905
 31
0.0
  0
LINE
  8
0
 62
     0
 10
134.064
 20
22.1905
 30
0.0
 11
132.538
 21
22.1905
 31
0.0
  0
LINE
  8
0
 62
     0
 10
132.538
 20
22.1905
 30
0.0
 11
132.538
 21
25.422
 31
0.0
  0
LINE
  8
0
 62
     0
 10
132.538
 20
25.422
 30
0.0
 11
130.813
 21
25.422
 31
0.0
  0
LINE
  8
0
 62
     0
 10
130.813
 20
25.422
 30
0.0
 11
130.813
 21
26.3412
 31
0.0
  0
LINE
  8
0
 62
     0
 10
130.813
 20
26.3412
 30
0.0
 11
127.514
 21
26.3412
 31
0.0
  0
LINE
  8
0
 62
     0
 10
127.514
 20
26.3412
 30
0.0
 11
127.514
 21
25.422
 31
0.0
  0
LINE
  8
0
 62
     0
 10
127.514
 20
25.422
 30
0.0
 11
125.789
 21
25.422
 31
0.0
  0
LINE
  8
0
 62
     0
 10
125.789
 20
25.422
 30
0.0
 11
125.789
 21
22.1905
 31
0.0
  0
LINE
  8
0
 62
     0
 10
125.789
 20
22.1905
 30
0.0
 11
124.963
 21
22.1905
 31
0.0
  0
LINE
  8
0
 62
     0
 10
124.963
 20
22.1905
 30
0.0
 11
124.963
 21
19.3918
 31
0.0
  0
LINE
  8
0
 62
     0
 10
124.963
 20
19.3918
 30
0.0
 11
125.789
 21
19.3918
 31
0.0
  0
LINE
  8
0
 62
     0
 10
125.789
 20
19.3918
 30
0.0
 11
125.789
 21
13.1217
 31
0.0
  0
LINE
  8
0
 62
     0
 10
125.789
 20
13.1217
 30
0.0
 11
127.514
 21
13.1217
 31
0.0
  0
LINE
  8
0
 62
     0
 10
127.514
 20
13.1217
 30
0.0
 11
127.514
 21
12.1419
 31
0.0
  0
LINE
  8
0
 62
     0
 10
127.514
 20
12.1419
 30
0.0
 11
130.813
 21
12.1419
 31
0.0
  0
LINE
  8
0
 62
     0
 10
130.813
 20
12.1419
 30
0.0
 11
130.813
 21
13.1217
 31
0.0
  0
LINE
  8
0
 62
     0
 10
130.813
 20
13.1217
 30
0.0
 11
132.538
 21
13.1217
 31
0.0
  0
LINE
  8
0
 62
     0
 10
132.538
 20
13.1217
 30
0.0
 11
132.538
 21
17.592
 31
0.0
  0
LINE
  8
0
 62
     0
 10
132.538
 20
17.592
 30
0.0
 11
134.064
 21
17.592
 31
0.0
  0
LINE
  8
0
 62
     0
 10
134.064
 20
17.592
 30
0.0
 11
134.064
 21
12.8916
 31
0.0
  0
LINE
  8
0
 62
     0
 10
134.064
 20
12.8916
 30
0.0
 11
148.063
 21
12.8916
 31
0.0
  0
LINE
  8
0
 62
     0
 10
148.063
 20
12.8916
 30
0.0
 11
148.063
 21
17.592
 31
0.0
  0
LINE
  8
0
 62
     0
 10
148.063
 20
17.592
 30
0.0
 11
149.589
 21
17.592
 31
0.0
  0
LINE
  8
0
 62
     0
 10
149.589
 20
17.592
 30
0.0
 11
149.589
 21
13.1217
 31
0.0
  0
LINE
  8
0
 62
     0
 10
149.589
 20
13.1217
 30
0.0
 11
151.314
 21
13.1217
 31
0.0
  0
LINE
  8
0
 62
     0
 10
151.314
 20
13.1217
 30
0.0
 11
151.314
 21
12.1419
 31
0.0
  0
LINE
  8
0
 62
     0
 10
151.314
 20
12.1419
 30
0.0
 11
154.613
 21
12.1419
 31
0.0
  0
LINE
  8
0
 62
     0
 10
154.613
 20
12.1419
 30
0.0
 11
154.613
 21
13.1217
 31
0.0
  0
LINE
  8
0
 62
     0
 10
154.613
 20
13.1217
 30
0.0
 11
156.338
 21
13.1217
 31
0.0
  0
LINE
  8
0
 62
     0
 10
156.338
 20
13.1217
 30
0.0
 11
156.338
 21
19.3918
 31
0.0
  0
LINE
  8
0
 62
     0
 10
156.338
 20
19.3918
 30
0.0
 11
157.164
 21
19.3918
 31
0.0
  0
LINE
  8
0
 62
     0
 10
157.164
 20
19.3918
 30
0.0
 11
157.164
 21
22.1905
 31
0.0
  0
LINE
  8
0
 62
     0
 10
157.164
 20
22.1905
 30
0.0
 11
156.338
 21
22.1905
 31
0.0
  0
LINE
  8
0
 62
     0
 10
156.338
 20
22.1905
 30
0.0
 11
156.338
 21
25.422
 31
0.0
  0
LINE
  8
0
 62
     0
 10
156.338
 20
25.422
 30
0.0
 11
154.613
 21
25.422
 31
0.0
  0
LINE
  8
0
 62
     0
 10
154.613
 20
25.422
 30
0.0
 11
154.613
 21
26.3412
 31
0.0
  0
LINE
  8
0
 62
     0
 10
154.613
 20
26.3412
 30
0.0
 11
151.314
 21
26.3412
 31
0.0
  0
LINE
  8
0
 62
     0
 10
151.314
 20
26.3412
 30
0.0
 11
151.314
 21
25.422
 31
0.0
  0
LINE
  8
0
 62
     0
 10
151.314
 20
25.422
 30
0.0
 11
149.589
 21
25.422
 31
0.0
  0
LINE
  8
0
 62
     0
 10
149.589
 20
25.422
 30
0.0
 11
149.589
 21
22.1905
 31
0.0
  0
LINE
  8
0
 62
     0
 10
149.589
 20
22.1905
 30
0.0
 11
148.063
 21
22.1905
 31
0.0
  0
LINE
  8
0
 62
     0
 10
148.063
 20
22.1905
 30
0.0
 11
148.063
 21
26.8911
 31
0.0
  0
LINE
  8
0
 62
     0
 10
148.063
 20
26.8911
 30
0.0
 11
134.064
 21
26.8911
 31
0.0
  0
LINE
  8
0
 62
     0
 10
12.6201
 20
26.8911
 30
0.0
 11
26.6209
 21
26.8911
 31
0.0
  0
LINE
  8
0
 62
     0
 10
26.6209
 20
26.8911
 30
0.0
 11
26.6209
 21
12.8916
 31
0.0
  0
LINE
  8
0
 62
     0
 10
26.6209
 20
12.8916
 30
0.0
 11
12.6201
 21
12.8916
 31
0.0
  0
LINE
  8
0
 62
     0
 10
12.6201
 20
12.8916
 30
0.0
 11
12.6201
 21
26.8911
 31
0.0
  0
LINE
  8
0
 62
     0
 10
31.6701
 20
26.8911
 30
0.0
 11
45.671
 21
26.8911
 31
0.0
  0
LINE
  8
0
 62
     0
 10
45.671
 20
26.8911
 30
0.0
 11
45.671
 21
12.8916
 31
0.0
  0
LINE
  8
0
 62
     0
 10
45.671
 20
12.8916
 30
0.0
 11
31.6701
 21
12.8916
 31
0.0
  0
LINE
  8
0
 62
     0
 10
31.6701
 20
12.8916
 30
0.0
 11
31.6701
 21
26.8911
 31
0.0
  0
LINE
  8
0
 62
     0
 10
50.7199
 20
26.8911
 30
0.0
 11
64.721
 21
26.8911
 31
0.0
  0
LINE
  8
0
 62
     0
 10
64.721
 20
26.8911
 30
0.0
 11
64.721
 21
12.8916
 31
0.0
  0
LINE
  8
0
 62
     0
 10
64.721
 20
12.8916
 30
0.0
 11
50.7199
 21
12.8916
 31
0.0
  0
LINE
  8
0
 62
     0
 10
50.7199
 20
12.8916
 30
0.0
 11
50.7199
 21
26.8911
 31
0.0
  0
LINE
  8
0
 62
     0
 10
165.02
 20
26.8911
 30
0.0
 11
179.021
 21
26.8911
 31
0.0
  0
LINE
  8
0
 62
     0
 10
179.021
 20
26.8911
 30
0.0
 11
179.021
 21
12.8916
 31
0.0
  0
LINE
  8
0
 62
     0
 10
179.021
 20
12.8916
 30
0.0
 11
165.02
 21
12.8916
 31
0.0
  0
LINE
  8
0
 62
     0
 10
165.02
 20
12.8916
 30
0.0
 11
165.02
 21
26.8911
 31
0.0
  0
LINE
  8
0
 62
     0
 10
184.07
 20
26.8911
 30
0.0
 11
198.071
 21
26.8911
 31
0.0
  0
LINE
  8
0
 62
     0
 10
198.071
 20
26.8911
 30
0.0
 11
198.071
 21
12.8916
 31
0.0
  0
LINE
  8
0
 62
     0
 10
198.071
 20
12.8916
 30
0.0
 11
184.07
 21
12.8916
 31
0.0
  0
LINE
  8
0
 62
     0
 10
184.07
 20
12.8916
 30
0.0
 11
184.07
 21
26.8911
 31
0.0
  0
LINE
  8
0
 62
     0
 10
203.12
 20
26.8911
 30
0.0
 11
217.121
 21
26.8911
 31
0.0
  0
LINE
  8
0
 62
     0
 10
217.121
 20
26.8911
 30
0.0
 11
217.121
 21
12.8916
 31
0.0
  0
LINE
  8
0
 62
     0
 10
217.121
 20
12.8916
 30
0.0
 11
203.12
 21
12.8916
 31
0.0
  0
LINE
  8
0
 62
     0
 10
203.12
 20
12.8916
 30
0.0
 11
203.12
 21
26.8911
 31
0.0
  0
LINE
  8
0
 62
     0
 10
222.17
 20
26.8911
 30
0.0
 11
236.171
 21
26.8911
 31
0.0
  0
LINE
  8
0
 62
     0
 10
236.171
 20
26.8911
 30
0.0
 11
236.171
 21
12.8916
 31
0.0
  0
LINE
  8
0
 62
     0
 10
236.171
 20
12.8916
 30
0.0
 11
222.17
 21
12.8916
 31
0.0
  0
LINE
  8
0
 62
     0
 10
222.17
 20
12.8916
 30
0.0
 11
222.17
 21
26.8911
 31
0.0
  0
LINE
  8
0
 62
     0
 10
241.22
 20
26.8911
 30
0.0
 11
255.221
 21
26.8911
 31
0.0
  0
LINE
  8
0
 62
     0
 10
255.221
 20
26.8911
 30
0.0
 11
255.221
 21
12.8916
 31
0.0
  0
LINE
  8
0
 62
     0
 10
255.221
 20
12.8916
 30
0.0
 11
241.22
 21
12.8916
 31
0.0
  0
LINE
  8
0
 62
     0
 10
241.22
 20
12.8916
 30
0.0
 11
241.22
 21
26.8911
 31
0.0
  0
LINE
  8
0
 62
     0
 10
260.27
 20
26.8911
 30
0.0
 11
274.271
 21
26.8911
 31
0.0
  0
LINE
  8
0
 62
     0
 10
274.271
 20
26.8911
 30
0.0
 11
274.271
 21
12.8916
 31
0.0
  0
LINE
  8
0
 62
     0
 10
274.271
 20
12.8916
 30
0.0
 11
260.27
 21
12.8916
 31
0.0
  0
LINE
  8
0
 62
     0
 10
260.27
 20
12.8916
 30
0.0
 11
260.27
 21
26.8911
 31
0.0
  0
LINE
  8
0
 62
     0
 10
279.32
 20
26.8911
 30
0.0
 11
293.321
 21
26.8911
 31
0.0
  0
LINE
  8
0
 62
     0
 10
293.321
 20
26.8911
 30
0.0
 11
293.321
 21
12.8916
 31
0.0
  0
LINE
  8
0
 62
     0
 10
293.321
 20
12.8916
 30
0.0
 11
279.32
 21
12.8916
 31
0.0
  0
LINE
  8
0
 62
     0
 10
279.32
 20
12.8916
 30
0.0
 11
279.32
 21
26.8911
 31
0.0
  0
LINE
  8
0
 62
     0
 10
231.695
 20
45.9412
 30
0.0
 11
231.695
 21
41.2404
 31
0.0
  0
LINE
  8
0
 62
     0
 10
231.695
 20
41.2404
 30
0.0
 11
230.171
 21
41.2404
 31
0.0
  0
LINE
  8
0
 62
     0
 10
230.171
 20
41.2404
 30
0.0
 11
230.171
 21
44.4708
 31
0.0
  0
LINE
  8
0
 62
     0
 10
230.171
 20
44.4708
 30
0.0
 11
228.446
 21
44.4708
 31
0.0
  0
LINE
  8
0
 62
     0
 10
228.446
 20
44.4708
 30
0.0
 11
228.446
 21
45.3912
 31
0.0
  0
LINE
  8
0
 62
     0
 10
228.446
 20
45.3912
 30
0.0
 11
225.145
 21
45.3912
 31
0.0
  0
LINE
  8
0
 62
     0
 10
225.145
 20
45.3912
 30
0.0
 11
225.145
 21
44.4708
 31
0.0
  0
LINE
  8
0
 62
     0
 10
225.145
 20
44.4708
 30
0.0
 11
223.42
 21
44.4708
 31
0.0
  0
LINE
  8
0
 62
     0
 10
223.42
 20
44.4708
 30
0.0
 11
223.42
 21
41.2404
 31
0.0
  0
LINE
  8
0
 62
     0
 10
223.42
 20
41.2404
 30
0.0
 11
222.596
 21
41.2404
 31
0.0
  0
LINE
  8
0
 62
     0
 10
222.596
 20
41.2404
 30
0.0
 11
222.596
 21
38.4404
 31
0.0
  0
LINE
  8
0
 62
     0
 10
222.596
 20
38.4404
 30
0.0
 11
223.42
 21
38.4404
 31
0.0
  0
LINE
  8
0
 62
     0
 10
223.42
 20
38.4404
 30
0.0
 11
223.42
 21
32.1717
 31
0.0
  0
LINE
  8
0
 62
     0
 10
223.42
 20
32.1717
 30
0.0
 11
225.145
 21
32.1717
 31
0.0
  0
LINE
  8
0
 62
     0
 10
225.145
 20
32.1717
 30
0.0
 11
225.145
 21
31.1905
 31
0.0
  0
LINE
  8
0
 62
     0
 10
225.145
 20
31.1905
 30
0.0
 11
228.446
 21
31.1905
 31
0.0
  0
LINE
  8
0
 62
     0
 10
228.446
 20
31.1905
 30
0.0
 11
228.446
 21
32.1717
 31
0.0
  0
LINE
  8
0
 62
     0
 10
228.446
 20
32.1717
 30
0.0
 11
230.171
 21
32.1717
 31
0.0
  0
LINE
  8
0
 62
     0
 10
230.171
 20
32.1717
 30
0.0
 11
230.171
 21
36.642
 31
0.0
  0
LINE
  8
0
 62
     0
 10
230.171
 20
36.642
 30
0.0
 11
231.695
 21
36.642
 31
0.0
  0
LINE
  8
0
 62
     0
 10
231.695
 20
36.642
 30
0.0
 11
231.695
 21
31.9402
 31
0.0
  0
LINE
  8
0
 62
     0
 10
231.695
 20
31.9402
 30
0.0
 11
245.696
 21
31.9402
 31
0.0
  0
LINE
  8
0
 62
     0
 10
245.696
 20
31.9402
 30
0.0
 11
245.696
 21
36.642
 31
0.0
  0
LINE
  8
0
 62
     0
 10
245.696
 20
36.642
 30
0.0
 11
247.22
 21
36.642
 31
0.0
  0
LINE
  8
0
 62
     0
 10
247.22
 20
36.642
 30
0.0
 11
247.22
 21
32.1717
 31
0.0
  0
LINE
  8
0
 62
     0
 10
247.22
 20
32.1717
 30
0.0
 11
248.945
 21
32.1717
 31
0.0
  0
LINE
  8
0
 62
     0
 10
248.945
 20
32.1717
 30
0.0
 11
248.945
 21
31.1905
 31
0.0
  0
LINE
  8
0
 62
     0
 10
248.945
 20
31.1905
 30
0.0
 11
252.244
 21
31.1905
 31
0.0
  0
LINE
  8
0
 62
     0
 10
252.244
 20
31.1905
 30
0.0
 11
252.244
 21
32.1717
 31
0.0
  0
LINE
  8
0
 62
     0
 10
252.244
 20
32.1717
 30
0.0
 11
253.971
 21
32.1717
 31
0.0
  0
LINE
  8
0
 62
     0
 10
253.971
 20
32.1717
 30
0.0
 11
253.971
 21
38.4404
 31
0.0
  0
LINE
  8
0
 62
     0
 10
253.971
 20
38.4404
 30
0.0
 11
254.795
 21
38.4404
 31
0.0
  0
LINE
  8
0
 62
     0
 10
254.795
 20
38.4404
 30
0.0
 11
254.795
 21
41.2404
 31
0.0
  0
LINE
  8
0
 62
     0
 10
254.795
 20
41.2404
 30
0.0
 11
253.971
 21
41.2404
 31
0.0
  0
LINE
  8
0
 62
     0
 10
253.971
 20
41.2404
 30
0.0
 11
253.971
 21
44.4708
 31
0.0
  0
LINE
  8
0
 62
     0
 10
253.971
 20
44.4708
 30
0.0
 11
252.244
 21
44.4708
 31
0.0
  0
LINE
  8
0
 62
     0
 10
252.244
 20
44.4708
 30
0.0
 11
252.244
 21
45.3912
 31
0.0
  0
LINE
  8
0
 62
     0
 10
252.244
 20
45.3912
 30
0.0
 11
248.945
 21
45.3912
 31
0.0
  0
LINE
  8
0
 62
     0
 10
248.945
 20
45.3912
 30
0.0
 11
248.945
 21
44.4708
 31
0.0
  0
LINE
  8
0
 62
     0
 10
248.945
 20
44.4708
 30
0.0
 11
247.22
 21
44.4708
 31
0.0
  0
LINE
  8
0
 62
     0
 10
247.22
 20
44.4708
 30
0.0
 11
247.22
 21
41.2404
 31
0.0
  0
LINE
  8
0
 62
     0
 10
247.22
 20
41.2404
 30
0.0
 11
245.696
 21
41.2404
 31
0.0
  0
LINE
  8
0
 62
     0
 10
245.696
 20
41.2404
 30
0.0
 11
245.696
 21
45.9412
 31
0.0
  0
LINE
  8
0
 62
     0
 10
245.696
 20
45.9412
 30
0.0
 11
231.695
 21
45.9412
 31
0.0
  0
LINE
  8
0
 62
     0
 10
12.6201
 20
45.9412
 30
0.0
 11
26.6209
 21
45.9412
 31
0.0
  0
LINE
  8
0
 62
     0
 10
26.6209
 20
45.9412
 30
0.0
 11
26.6209
 21
31.9402
 31
0.0
  0
LINE
  8
0
 62
     0
 10
26.6209
 20
31.9402
 30
0.0
 11
12.6201
 21
31.9402
 31
0.0
  0
LINE
  8
0
 62
     0
 10
12.6201
 20
31.9402
 30
0.0
 11
12.6201
 21
45.9412
 31
0.0
  0
LINE
  8
0
 62
     0
 10
31.6701
 20
45.9412
 30
0.0
 11
45.671
 21
45.9412
 31
0.0
  0
LINE
  8
0
 62
     0
 10
45.671
 20
45.9412
 30
0.0
 11
45.671
 21
31.9402
 31
0.0
  0
LINE
  8
0
 62
     0
 10
45.671
 20
31.9402
 30
0.0
 11
31.6701
 21
31.9402
 31
0.0
  0
LINE
  8
0
 62
     0
 10
31.6701
 20
31.9402
 30
0.0
 11
31.6701
 21
45.9412
 31
0.0
  0
LINE
  8
0
 62
     0
 10
50.7199
 20
45.9412
 30
0.0
 11
64.721
 21
45.9412
 31
0.0
  0
LINE
  8
0
 62
     0
 10
64.721
 20
45.9412
 30
0.0
 11
64.721
 21
31.9402
 31
0.0
  0
LINE
  8
0
 62
     0
 10
64.721
 20
31.9402
 30
0.0
 11
50.7199
 21
31.9402
 31
0.0
  0
LINE
  8
0
 62
     0
 10
50.7199
 20
31.9402
 30
0.0
 11
50.7199
 21
45.9412
 31
0.0
  0
LINE
  8
0
 62
     0
 10
69.7699
 20
45.9412
 30
0.0
 11
83.771
 21
45.9412
 31
0.0
  0
LINE
  8
0
 62
     0
 10
83.771
 20
45.9412
 30
0.0
 11
83.771
 21
31.9402
 31
0.0
  0
LINE
  8
0
 62
     0
 10
83.771
 20
31.9402
 30
0.0
 11
69.7699
 21
31.9402
 31
0.0
  0
LINE
  8
0
 62
     0
 10
69.7699
 20
31.9402
 30
0.0
 11
69.7699
 21
45.9412
 31
0.0
  0
LINE
  8
0
 62
     0
 10
88.8199
 20
45.9412
 30
0.0
 11
102.821
 21
45.9412
 31
0.0
  0
LINE
  8
0
 62
     0
 10
102.821
 20
45.9412
 30
0.0
 11
102.821
 21
31.9402
 31
0.0
  0
LINE
  8
0
 62
     0
 10
102.821
 20
31.9402
 30
0.0
 11
88.8199
 21
31.9402
 31
0.0
  0
LINE
  8
0
 62
     0
 10
88.8199
 20
31.9402
 30
0.0
 11
88.8199
 21
45.9412
 31
0.0
  0
LINE
  8
0
 62
     0
 10
107.87
 20
45.9412
 30
0.0
 11
121.87
 21
45.9412
 31
0.0
  0
LINE
  8
0
 62
     0
 10
121.87
 20
45.9412
 30
0.0
 11
121.87
 21
31.9402
 31
0.0
  0
LINE
  8
0
 62
     0
 10
121.87
 20
31.9402
 30
0.0
 11
107.87
 21
31.9402
 31
0.0
  0
LINE
  8
0
 62
     0
 10
107.87
 20
31.9402
 30
0.0
 11
107.87
 21
45.9412
 31
0.0
  0
LINE
  8
0
 62
     0
 10
126.92
 20
45.9412
 30
0.0
 11
140.921
 21
45.9412
 31
0.0
  0
LINE
  8
0
 62
     0
 10
140.921
 20
45.9412
 30
0.0
 11
140.921
 21
31.9402
 31
0.0
  0
LINE
  8
0
 62
     0
 10
140.921
 20
31.9402
 30
0.0
 11
126.92
 21
31.9402
 31
0.0
  0
LINE
  8
0
 62
     0
 10
126.92
 20
31.9402
 30
0.0
 11
126.92
 21
45.9412
 31
0.0
  0
LINE
  8
0
 62
     0
 10
145.97
 20
45.9412
 30
0.0
 11
159.971
 21
45.9412
 31
0.0
  0
LINE
  8
0
 62
     0
 10
159.971
 20
45.9412
 30
0.0
 11
159.971
 21
31.9402
 31
0.0
  0
LINE
  8
0
 62
     0
 10
159.971
 20
31.9402
 30
0.0
 11
145.97
 21
31.9402
 31
0.0
  0
LINE
  8
0
 62
     0
 10
145.97
 20
31.9402
 30
0.0
 11
145.97
 21
45.9412
 31
0.0
  0
LINE
  8
0
 62
     0
 10
165.02
 20
45.9412
 30
0.0
 11
179.021
 21
45.9412
 31
0.0
  0
LINE
  8
0
 62
     0
 10
179.021
 20
45.9412
 30
0.0
 11
179.021
 21
31.9402
 31
0.0
  0
LINE
  8
0
 62
     0
 10
179.021
 20
31.9402
 30
0.0
 11
165.02
 21
31.9402
 31
0.0
  0
LINE
  8
0
 62
     0
 10
165.02
 20
31.9402
 30
0.0
 11
165.02
 21
45.9412
 31
0.0
  0
LINE
  8
0
 62
     0
 10
184.07
 20
45.9412
 30
0.0
 11
198.071
 21
45.9412
 31
0.0
  0
LINE
  8
0
 62
     0
 10
198.071
 20
45.9412
 30
0.0
 11
198.071
 21
31.9402
 31
0.0
  0
LINE
  8
0
 62
     0
 10
198.071
 20
31.9402
 30
0.0
 11
184.07
 21
31.9402
 31
0.0
  0
LINE
  8
0
 62
     0
 10
184.07
 20
31.9402
 30
0.0
 11
184.07
 21
45.9412
 31
0.0
  0
LINE
  8
0
 62
     0
 10
203.12
 20
45.9412
 30
0.0
 11
217.121
 21
45.9412
 31
0.0
  0
LINE
  8
0
 62
     0
 10
217.121
 20
45.9412
 30
0.0
 11
217.121
 21
31.9402
 31
0.0
  0
LINE
  8
0
 62
     0
 10
217.121
 20
31.9402
 30
0.0
 11
203.12
 21
31.9402
 31
0.0
  0
LINE
  8
0
 62
     0
 10
203.12
 20
31.9402
 30
0.0
 11
203.12
 21
45.9412
 31
0.0
  0
LINE
  8
0
 62
     0
 10
260.27
 20
45.9412
 30
0.0
 11
274.271
 21
45.9412
 31
0.0
  0
LINE
  8
0
 62
     0
 10
274.271
 20
45.9412
 30
0.0
 11
274.271
 21
31.9402
 31
0.0
  0
LINE
  8
0
 62
     0
 10
274.271
 20
31.9402
 30
0.0
 11
260.27
 21
31.9402
 31
0.0
  0
LINE
  8
0
 62
     0
 10
260.27
 20
31.9402
 30
0.0
 11
260.27
 21
45.9412
 31
0.0
  0
LINE
  8
0
 62
     0
 10
279.32
 20
45.9412
 30
0.0
 11
293.321
 21
45.9412
 31
0.0
  0
LINE
  8
0
 62
     0
 10
293.321
 20
45.9412
 30
0.0
 11
293.321
 21
31.9402
 31
0.0
  0
LINE
  8
0
 62
     0
 10
293.321
 20
31.9402
 30
0.0
 11
279.32
 21
31.9402
 31
0.0
  0
LINE
  8
0
 62
     0
 10
279.32
 20
31.9402
 30
0.0
 11
279.32
 21
45.9412
 31
0.0
  0
LINE
  8
0
 62
     0
 10
250.745
 20
64.9912
 30
0.0
 11
250.745
 21
60.2904
 31
0.0
  0
LINE
  8
0
 62
     0
 10
250.745
 20
60.2904
 30
0.0
 11
249.221
 21
60.2904
 31
0.0
  0
LINE
  8
0
 62
     0
 10
249.221
 20
60.2904
 30
0.0
 11
249.221
 21
63.5208
 31
0.0
  0
LINE
  8
0
 62
     0
 10
249.221
 20
63.5208
 30
0.0
 11
247.496
 21
63.5208
 31
0.0
  0
LINE
  8
0
 62
     0
 10
247.496
 20
63.5208
 30
0.0
 11
247.496
 21
64.4412
 31
0.0
  0
LINE
  8
0
 62
     0
 10
247.496
 20
64.4412
 30
0.0
 11
244.195
 21
64.4412
 31
0.0
  0
LINE
  8
0
 62
     0
 10
244.195
 20
64.4412
 30
0.0
 11
244.195
 21
63.5208
 31
0.0
  0
LINE
  8
0
 62
     0
 10
244.195
 20
63.5208
 30
0.0
 11
242.47
 21
63.5208
 31
0.0
  0
LINE
  8
0
 62
     0
 10
242.47
 20
63.5208
 30
0.0
 11
242.47
 21
60.2904
 31
0.0
  0
LINE
  8
0
 62
     0
 10
242.47
 20
60.2904
 30
0.0
 11
241.646
 21
60.2904
 31
0.0
  0
LINE
  8
0
 62
     0
 10
241.646
 20
60.2904
 30
0.0
 11
241.646
 21
57.4904
 31
0.0
  0
LINE
  8
0
 62
     0
 10
241.646
 20
57.4904
 30
0.0
 11
242.47
 21
57.4904
 31
0.0
  0
LINE
  8
0
 62
     0
 10
242.47
 20
57.4904
 30
0.0
 11
242.47
 21
51.2202
 31
0.0
  0
LINE
  8
0
 62
     0
 10
242.47
 20
51.2202
 30
0.0
 11
244.195
 21
51.2202
 31
0.0
  0
LINE
  8
0
 62
     0
 10
244.195
 20
51.2202
 30
0.0
 11
244.195
 21
50.2405
 31
0.0
  0
LINE
  8
0
 62
     0
 10
244.195
 20
50.2405
 30
0.0
 11
247.496
 21
50.2405
 31
0.0
  0
LINE
  8
0
 62
     0
 10
247.496
 20
50.2405
 30
0.0
 11
247.496
 21
51.2202
 31
0.0
  0
LINE
  8
0
 62
     0
 10
247.496
 20
51.2202
 30
0.0
 11
249.221
 21
51.2202
 31
0.0
  0
LINE
  8
0
 62
     0
 10
249.221
 20
51.2202
 30
0.0
 11
249.221
 21
55.6906
 31
0.0
  0
LINE
  8
0
 62
     0
 10
249.221
 20
55.6906
 30
0.0
 11
250.745
 21
55.6906
 31
0.0
  0
LINE
  8
0
 62
     0
 10
250.745
 20
55.6906
 30
0.0
 11
250.745
 21
50.9901
 31
0.0
  0
LINE
  8
0
 62
     0
 10
250.745
 20
50.9901
 30
0.0
 11
264.746
 21
50.9901
 31
0.0
  0
LINE
  8
0
 62
     0
 10
264.746
 20
50.9901
 30
0.0
 11
264.746
 21
55.6906
 31
0.0
  0
LINE
  8
0
 62
     0
 10
264.746
 20
55.6906
 30
0.0
 11
266.27
 21
55.6906
 31
0.0
  0
LINE
  8
0
 62
     0
 10
266.27
 20
55.6906
 30
0.0
 11
266.27
 21
51.2202
 31
0.0
  0
LINE
  8
0
 62
     0
 10
266.27
 20
51.2202
 30
0.0
 11
267.995
 21
51.2202
 31
0.0
  0
LINE
  8
0
 62
     0
 10
267.995
 20
51.2202
 30
0.0
 11
267.995
 21
50.2405
 31
0.0
  0
LINE
  8
0
 62
     0
 10
267.995
 20
50.2405
 30
0.0
 11
271.296
 21
50.2405
 31
0.0
  0
LINE
  8
0
 62
     0
 10
271.296
 20
50.2405
 30
0.0
 11
271.296
 21
51.2202
 31
0.0
  0
LINE
  8
0
 62
     0
 10
271.296
 20
51.2202
 30
0.0
 11
273.021
 21
51.2202
 31
0.0
  0
LINE
  8
0
 62
     0
 10
273.021
 20
51.2202
 30
0.0
 11
273.021
 21
57.4904
 31
0.0
  0
LINE
  8
0
 62
     0
 10
273.021
 20
57.4904
 30
0.0
 11
273.845
 21
57.4904
 31
0.0
  0
LINE
  8
0
 62
     0
 10
273.845
 20
57.4904
 30
0.0
 11
273.845
 21
60.2904
 31
0.0
  0
LINE
  8
0
 62
     0
 10
273.845
 20
60.2904
 30
0.0
 11
273.021
 21
60.2904
 31
0.0
  0
LINE
  8
0
 62
     0
 10
273.021
 20
60.2904
 30
0.0
 11
273.021
 21
63.5208
 31
0.0
  0
LINE
  8
0
 62
     0
 10
273.021
 20
63.5208
 30
0.0
 11
271.296
 21
63.5208
 31
0.0
  0
LINE
  8
0
 62
     0
 10
271.296
 20
63.5208
 30
0.0
 11
271.296
 21
64.4412
 31
0.0
  0
LINE
  8
0
 62
     0
 10
271.296
 20
64.4412
 30
0.0
 11
267.995
 21
64.4412
 31
0.0
  0
LINE
  8
0
 62
     0
 10
267.995
 20
64.4412
 30
0.0
 11
267.995
 21
63.5208
 31
0.0
  0
LINE
  8
0
 62
     0
 10
267.995
 20
63.5208
 30
0.0
 11
266.27
 21
63.5208
 31
0.0
  0
LINE
  8
0
 62
     0
 10
266.27
 20
63.5208
 30
0.0
 11
266.27
 21
60.2904
 31
0.0
  0
LINE
  8
0
 62
     0
 10
266.27
 20
60.2904
 30
0.0
 11
264.746
 21
60.2904
 31
0.0
  0
LINE
  8
0
 62
     0
 10
264.746
 20
60.2904
 30
0.0
 11
264.746
 21
64.9912
 31
0.0
  0
LINE
  8
0
 62
     0
 10
264.746
 20
64.9912
 30
0.0
 11
250.745
 21
64.9912
 31
0.0
  0
LINE
  8
0
 62
     0
 10
12.6201
 20
64.9912
 30
0.0
 11
26.6209
 21
64.9912
 31
0.0
  0
LINE
  8
0
 62
     0
 10
26.6209
 20
64.9912
 30
0.0
 11
26.6209
 21
50.9901
 31
0.0
  0
LINE
  8
0
 62
     0
 10
26.6209
 20
50.9901
 30
0.0
 11
12.6201
 21
50.9901
 31
0.0
  0
LINE
  8
0
 62
     0
 10
12.6201
 20
50.9901
 30
0.0
 11
12.6201
 21
64.9912
 31
0.0
  0
LINE
  8
0
 62
     0
 10
31.6701
 20
64.9912
 30
0.0
 11
45.671
 21
64.9912
 31
0.0
  0
LINE
  8
0
 62
     0
 10
45.671
 20
64.9912
 30
0.0
 11
45.671
 21
50.9901
 31
0.0
  0
LINE
  8
0
 62
     0
 10
45.671
 20
50.9901
 30
0.0
 11
31.6701
 21
50.9901
 31
0.0
  0
LINE
  8
0
 62
     0
 10
31.6701
 20
50.9901
 30
0.0
 11
31.6701
 21
64.9912
 31
0.0
  0
LINE
  8
0
 62
     0
 10
50.7199
 20
64.9912
 30
0.0
 11
64.721
 21
64.9912
 31
0.0
  0
LINE
  8
0
 62
     0
 10
64.721
 20
64.9912
 30
0.0
 11
64.721
 21
50.9901
 31
0.0
  0
LINE
  8
0
 62
     0
 10
64.721
 20
50.9901
 30
0.0
 11
50.7199
 21
50.9901
 31
0.0
  0
LINE
  8
0
 62
     0
 10
50.7199
 20
50.9901
 30
0.0
 11
50.7199
 21
64.9912
 31
0.0
  0
LINE
  8
0
 62
     0
 10
69.7699
 20
64.9912
 30
0.0
 11
83.771
 21
64.9912
 31
0.0
  0
LINE
  8
0
 62
     0
 10
83.771
 20
64.9912
 30
0.0
 11
83.771
 21
50.9901
 31
0.0
  0
LINE
  8
0
 62
     0
 10
83.771
 20
50.9901
 30
0.0
 11
69.7699
 21
50.9901
 31
0.0
  0
LINE
  8
0
 62
     0
 10
69.7699
 20
50.9901
 30
0.0
 11
69.7699
 21
64.9912
 31
0.0
  0
LINE
  8
0
 62
     0
 10
88.8199
 20
64.9912
 30
0.0
 11
102.821
 21
64.9912
 31
0.0
  0
LINE
  8
0
 62
     0
 10
102.821
 20
64.9912
 30
0.0
 11
102.821
 21
50.9901
 31
0.0
  0
LINE
  8
0
 62
     0
 10
102.821
 20
50.9901
 30
0.0
 11
88.8199
 21
50.9901
 31
0.0
  0
LINE
  8
0
 62
     0
 10
88.8199
 20
50.9901
 30
0.0
 11
88.8199
 21
64.9912
 31
0.0
  0
LINE
  8
0
 62
     0
 10
107.87
 20
64.9912
 30
0.0
 11
121.87
 21
64.9912
 31
0.0
  0
LINE
  8
0
 62
     0
 10
121.87
 20
64.9912
 30
0.0
 11
121.87
 21
50.9901
 31
0.0
  0
LINE
  8
0
 62
     0
 10
121.87
 20
50.9901
 30
0.0
 11
107.87
 21
50.9901
 31
0.0
  0
LINE
  8
0
 62
     0
 10
107.87
 20
50.9901
 30
0.0
 11
107.87
 21
64.9912
 31
0.0
  0
LINE
  8
0
 62
     0
 10
126.92
 20
64.9912
 30
0.0
 11
140.921
 21
64.9912
 31
0.0
  0
LINE
  8
0
 62
     0
 10
140.921
 20
64.9912
 30
0.0
 11
140.921
 21
50.9901
 31
0.0
  0
LINE
  8
0
 62
     0
 10
140.921
 20
50.9901
 30
0.0
 11
126.92
 21
50.9901
 31
0.0
  0
LINE
  8
0
 62
     0
 10
126.92
 20
50.9901
 30
0.0
 11
126.92
 21
64.9912
 31
0.0
  0
LINE
  8
0
 62
     0
 10
145.97
 20
64.9912
 30
0.0
 11
159.971
 21
64.9912
 31
0.0
  0
LINE
  8
0
 62
     0
 10
159.971
 20
64.9912
 30
0.0
 11
159.971
 21
50.9901
 31
0.0
  0
LINE
  8
0
 62
     0
 10
159.971
 20
50.9901
 30
0.0
 11
145.97
 21
50.9901
 31
0.0
  0
LINE
  8
0
 62
     0
 10
145.97
 20
50.9901
 30
0.0
 11
145.97
 21
64.9912
 31
0.0
  0
LINE
  8
0
 62
     0
 10
165.02
 20
64.9912
 30
0.0
 11
179.021
 21
64.9912
 31
0.0
  0
LINE
  8
0
 62
     0
 10
179.021
 20
64.9912
 30
0.0
 11
179.021
 21
50.9901
 31
0.0
  0
LINE
  8
0
 62
     0
 10
179.021
 20
50.9901
 30
0.0
 11
165.02
 21
50.9901
 31
0.0
  0
LINE
  8
0
 62
     0
 10
165.02
 20
50.9901
 30
0.0
 11
165.02
 21
64.9912
 31
0.0
  0
LINE
  8
0
 62
     0
 10
184.07
 20
64.9912
 30
0.0
 11
198.071
 21
64.9912
 31
0.0
  0
LINE
  8
0
 62
     0
 10
198.071
 20
64.9912
 30
0.0
 11
198.071
 21
50.9901
 31
0.0
  0
LINE
  8
0
 62
     0
 10
198.071
 20
50.9901
 30
0.0
 11
184.07
 21
50.9901
 31
0.0
  0
LINE
  8
0
 62
     0
 10
184.07
 20
50.9901
 30
0.0
 11
184.07
 21
64.9912
 31
0.0
  0
LINE
  8
0
 62
     0
 10
203.12
 20
64.9912
 30
0.0
 11
217.121
 21
64.9912
 31
0.0
  0
LINE
  8
0
 62
     0
 10
217.121
 20
64.9912
 30
0.0
 11
217.121
 21
50.9901
 31
0.0
  0
LINE
  8
0
 62
     0
 10
217.121
 20
50.9901
 30
0.0
 11
203.12
 21
50.9901
 31
0.0
  0
LINE
  8
0
 62
     0
 10
203.12
 20
50.9901
 30
0.0
 11
203.12
 21
64.9912
 31
0.0
  0
LINE
  8
0
 62
     0
 10
222.17
 20
64.9912
 30
0.0
 11
236.171
 21
64.9912
 31
0.0
  0
LINE
  8
0
 62
     0
 10
236.171
 20
64.9912
 30
0.0
 11
236.171
 21
50.9901
 31
0.0
  0
LINE
  8
0
 62
     0
 10
236.171
 20
50.9901
 30
0.0
 11
222.17
 21
50.9901
 31
0.0
  0
LINE
  8
0
 62
     0
 10
222.17
 20
50.9901
 30
0.0
 11
222.17
 21
64.9912
 31
0.0
  0
LINE
  8
0
 62
     0
 10
279.32
 20
64.9912
 30
0.0
 11
293.321
 21
64.9912
 31
0.0
  0
LINE
  8
0
 62
     0
 10
293.321
 20
64.9912
 30
0.0
 11
293.321
 21
50.9901
 31
0.0
  0
LINE
  8
0
 62
     0
 10
293.321
 20
50.9901
 30
0.0
 11
279.32
 21
50.9901
 31
0.0
  0
LINE
  8
0
 62
     0
 10
279.32
 20
50.9901
 30
0.0
 11
279.32
 21
64.9912
 31
0.0
  0
LINE
  8
0
 62
     0
 10
12.6201
 20
84.0412
 30
0.0
 11
26.6209
 21
84.0412
 31
0.0
  0
LINE
  8
0
 62
     0
 10
26.6209
 20
84.0412
 30
0.0
 11
26.6209
 21
70.0401
 31
0.0
  0
LINE
  8
0
 62
     0
 10
26.6209
 20
70.0401
 30
0.0
 11
12.6201
 21
70.0401
 31
0.0
  0
LINE
  8
0
 62
     0
 10
12.6201
 20
70.0401
 30
0.0
 11
12.6201
 21
84.0412
 31
0.0
  0
LINE
  8
0
 62
     0
 10
31.6701
 20
84.0412
 30
0.0
 11
45.671
 21
84.0412
 31
0.0
  0
LINE
  8
0
 62
     0
 10
45.671
 20
84.0412
 30
0.0
 11
45.671
 21
70.0401
 31
0.0
  0
LINE
  8
0
 62
     0
 10
45.671
 20
70.0401
 30
0.0
 11
31.6701
 21
70.0401
 31
0.0
  0
LINE
  8
0
 62
     0
 10
31.6701
 20
70.0401
 30
0.0
 11
31.6701
 21
84.0412
 31
0.0
  0
LINE
  8
0
 62
     0
 10
50.7199
 20
84.0412
 30
0.0
 11
64.721
 21
84.0412
 31
0.0
  0
LINE
  8
0
 62
     0
 10
64.721
 20
84.0412
 30
0.0
 11
64.721
 21
70.0401
 31
0.0
  0
LINE
  8
0
 62
     0
 10
64.721
 20
70.0401
 30
0.0
 11
50.7199
 21
70.0401
 31
0.0
  0
LINE
  8
0
 62
     0
 10
50.7199
 20
70.0401
 30
0.0
 11
50.7199
 21
84.0412
 31
0.0
  0
LINE
  8
0
 62
     0
 10
69.7699
 20
84.0412
 30
0.0
 11
83.771
 21
84.0412
 31
0.0
  0
LINE
  8
0
 62
     0
 10
83.771
 20
84.0412
 30
0.0
 11
83.771
 21
70.0401
 31
0.0
  0
LINE
  8
0
 62
     0
 10
83.771
 20
70.0401
 30
0.0
 11
69.7699
 21
70.0401
 31
0.0
  0
LINE
  8
0
 62
     0
 10
69.7699
 20
70.0401
 30
0.0
 11
69.7699
 21
84.0412
 31
0.0
  0
LINE
  8
0
 62
     0
 10
88.8199
 20
84.0412
 30
0.0
 11
102.821
 21
84.0412
 31
0.0
  0
LINE
  8
0
 62
     0
 10
102.821
 20
84.0412
 30
0.0
 11
102.821
 21
70.0401
 31
0.0
  0
LINE
  8
0
 62
     0
 10
102.821
 20
70.0401
 30
0.0
 11
88.8199
 21
70.0401
 31
0.0
  0
LINE
  8
0
 62
     0
 10
88.8199
 20
70.0401
 30
0.0
 11
88.8199
 21
84.0412
 31
0.0
  0
LINE
  8
0
 62
     0
 10
107.87
 20
84.0412
 30
0.0
 11
121.87
 21
84.0412
 31
0.0
  0
LINE
  8
0
 62
     0
 10
121.87
 20
84.0412
 30
0.0
 11
121.87
 21
70.0401
 31
0.0
  0
LINE
  8
0
 62
     0
 10
121.87
 20
70.0401
 30
0.0
 11
107.87
 21
70.0401
 31
0.0
  0
LINE
  8
0
 62
     0
 10
107.87
 20
70.0401
 30
0.0
 11
107.87
 21
84.0412
 31
0.0
  0
LINE
  8
0
 62
     0
 10
126.92
 20
84.0412
 30
0.0
 11
140.921
 21
84.0412
 31
0.0
  0
LINE
  8
0
 62
     0
 10
140.921
 20
84.0412
 30
0.0
 11
140.921
 21
70.0401
 31
0.0
  0
LINE
  8
0
 62
     0
 10
140.921
 20
70.0401
 30
0.0
 11
126.92
 21
70.0401
 31
0.0
  0
LINE
  8
0
 62
     0
 10
126.92
 20
70.0401
 30
0.0
 11
126.92
 21
84.0412
 31
0.0
  0
LINE
  8
0
 62
     0
 10
145.97
 20
84.0412
 30
0.0
 11
159.971
 21
84.0412
 31
0.0
  0
LINE
  8
0
 62
     0
 10
159.971
 20
84.0412
 30
0.0
 11
159.971
 21
70.0401
 31
0.0
  0
LINE
  8
0
 62
     0
 10
159.971
 20
70.0401
 30
0.0
 11
145.97
 21
70.0401
 31
0.0
  0
LINE
  8
0
 62
     0
 10
145.97
 20
70.0401
 30
0.0
 11
145.97
 21
84.0412
 31
0.0
  0
LINE
  8
0
 62
     0
 10
165.02
 20
84.0412
 30
0.0
 11
179.021
 21
84.0412
 31
0.0
  0
LINE
  8
0
 62
     0
 10
179.021
 20
84.0412
 30
0.0
 11
179.021
 21
70.0401
 31
0.0
  0
LINE
  8
0
 62
     0
 10
179.021
 20
70.0401
 30
0.0
 11
165.02
 21
70.0401
 31
0.0
  0
LINE
  8
0
 62
     0
 10
165.02
 20
70.0401
 30
0.0
 11
165.02
 21
84.0412
 31
0.0
  0
LINE
  8
0
 62
     0
 10
184.07
 20
84.0412
 30
0.0
 11
198.071
 21
84.0412
 31
0.0
  0
LINE
  8
0
 62
     0
 10
198.071
 20
84.0412
 30
0.0
 11
198.071
 21
70.0401
 31
0.0
  0
LINE
  8
0
 62
     0
 10
198.071
 20
70.0401
 30
0.0
 11
184.07
 21
70.0401
 31
0.0
  0
LINE
  8
0
 62
     0
 10
184.07
 20
70.0401
 30
0.0
 11
184.07
 21
84.0412
 31
0.0
  0
LINE
  8
0
 62
     0
 10
203.12
 20
84.0412
 30
0.0
 11
217.121
 21
84.0412
 31
0.0
  0
LINE
  8
0
 62
     0
 10
217.121
 20
84.0412
 30
0.0
 11
217.121
 21
70.0401
 31
0.0
  0
LINE
  8
0
 62
     0
 10
217.121
 20
70.0401
 30
0.0
 11
203.12
 21
70.0401
 31
0.0
  0
LINE
  8
0
 62
     0
 10
203.12
 20
70.0401
 30
0.0
 11
203.12
 21
84.0412
 31
0.0
  0
LINE
  8
0
 62
     0
 10
222.17
 20
84.0412
 30
0.0
 11
236.171
 21
84.0412
 31
0.0
  0
LINE
  8
0
 62
     0
 10
236.171
 20
84.0412
 30
0.0
 11
236.171
 21
70.0401
 31
0.0
  0
LINE
  8
0
 62
     0
 10
236.171
 20
70.0401
 30
0.0
 11
222.17
 21
70.0401
 31
0.0
  0
LINE
  8
0
 62
     0
 10
222.17
 20
70.0401
 30
0.0
 11
222.17
 21
84.0412
 31
0.0
  0
LINE
  8
0
 62
     0
 10
241.22
 20
84.0412
 30
0.0
 11
255.221
 21
84.0412
 31
0.0
  0
LINE
  8
0
 62
     0
 10
255.221
 20
84.0412
 30
0.0
 11
255.221
 21
70.0401
 31
0.0
  0
LINE
  8
0
 62
     0
 10
255.221
 20
70.0401
 30
0.0
 11
241.22
 21
70.0401
 31
0.0
  0
LINE
  8
0
 62
     0
 10
241.22
 20
70.0401
 30
0.0
 11
241.22
 21
84.0412
 31
0.0
  0
LINE
  8
0
 62
     0
 10
260.27
 20
84.0412
 30
0.0
 11
274.271
 21
84.0412
 31
0.0
  0
LINE
  8
0
 62
     0
 10
274.271
 20
84.0412
 30
0.0
 11
274.271
 21
70.0401
 31
0.0
  0
LINE
  8
0
 62
     0
 10
274.271
 20
70.0401
 30
0.0
 11
260.27
 21
70.0401
 31
0.0
  0
LINE
  8
0
 62
     0
 10
260.27
 20
70.0401
 30
0.0
 11
260.27
 21
84.0412
 31
0.0
  0
LINE
  8
0
 62
     0
 10
279.32
 20
84.0412
 30
0.0
 11
293.321
 21
84.0412
 31
0.0
  0
LINE
  8
0
 62
     0
 10
293.321
 20
84.0412
 30
0.0
 11
293.321
 21
70.0401
 31
0.0
  0
LINE
  8
0
 62
     0
 10
293.321
 20
70.0401
 30
0.0
 11
279.32
 21
70.0401
 31
0.0
  0
LINE
  8
0
 62
     0
 10
279.32
 20
70.0401
 30
0.0
 11
279.32
 21
84.0412
 31
0.0
  0
LINE
  8
0
 62
     0
 10
269.795
 20
103.091
 30
0.0
 11
269.795
 21
98.3904
 31
0.0
  0
LINE
  8
0
 62
     0
 10
269.795
 20
98.3904
 30
0.0
 11
268.271
 21
98.3904
 31
0.0
  0
LINE
  8
0
 62
     0
 10
268.271
 20
98.3904
 30
0.0
 11
268.271
 21
101.621
 31
0.0
  0
LINE
  8
0
 62
     0
 10
268.271
 20
101.621
 30
0.0
 11
266.546
 21
101.621
 31
0.0
  0
LINE
  8
0
 62
     0
 10
266.546
 20
101.621
 30
0.0
 11
266.546
 21
102.541
 31
0.0
  0
LINE
  8
0
 62
     0
 10
266.546
 20
102.541
 30
0.0
 11
263.245
 21
102.541
 31
0.0
  0
LINE
  8
0
 62
     0
 10
263.245
 20
102.541
 30
0.0
 11
263.245
 21
101.621
 31
0.0
  0
LINE
  8
0
 62
     0
 10
263.245
 20
101.621
 30
0.0
 11
261.52
 21
101.621
 31
0.0
  0
LINE
  8
0
 62
     0
 10
261.52
 20
101.621
 30
0.0
 11
261.52
 21
98.3904
 31
0.0
  0
LINE
  8
0
 62
     0
 10
261.52
 20
98.3904
 30
0.0
 11
260.696
 21
98.3904
 31
0.0
  0
LINE
  8
0
 62
     0
 10
260.696
 20
98.3904
 30
0.0
 11
260.696
 21
95.5904
 31
0.0
  0
LINE
  8
0
 62
     0
 10
260.696
 20
95.5904
 30
0.0
 11
261.52
 21
95.5904
 31
0.0
  0
LINE
  8
0
 62
     0
 10
261.52
 20
95.5904
 30
0.0
 11
261.52
 21
89.3202
 31
0.0
  0
LINE
  8
0
 62
     0
 10
261.52
 20
89.3202
 30
0.0
 11
263.245
 21
89.3202
 31
0.0
  0
LINE
  8
0
 62
     0
 10
263.245
 20
89.3202
 30
0.0
 11
263.245
 21
88.3405
 31
0.0
  0
LINE
  8
0
 62
     0
 10
263.245
 20
88.3405
 30
0.0
 11
266.546
 21
88.3405
 31
0.0
  0
LINE
  8
0
 62
     0
 10
266.546
 20
88.3405
 30
0.0
 11
266.546
 21
89.3202
 31
0.0
  0
LINE
  8
0
 62
     0
 10
266.546
 20
89.3202
 30
0.0
 11
268.271
 21
89.3202
 31
0.0
  0
LINE
  8
0
 62
     0
 10
268.271
 20
89.3202
 30
0.0
 11
268.271
 21
93.7906
 31
0.0
  0
LINE
  8
0
 62
     0
 10
268.271
 20
93.7906
 30
0.0
 11
269.795
 21
93.7906
 31
0.0
  0
LINE
  8
0
 62
     0
 10
269.795
 20
93.7906
 30
0.0
 11
269.795
 21
89.0901
 31
0.0
  0
LINE
  8
0
 62
     0
 10
269.795
 20
89.0901
 30
0.0
 11
283.796
 21
89.0901
 31
0.0
  0
LINE
  8
0
 62
     0
 10
283.796
 20
89.0901
 30
0.0
 11
283.796
 21
93.7906
 31
0.0
  0
LINE
  8
0
 62
     0
 10
283.796
 20
93.7906
 30
0.0
 11
285.32
 21
93.7906
 31
0.0
  0
LINE
  8
0
 62
     0
 10
285.32
 20
93.7906
 30
0.0
 11
285.32
 21
89.3202
 31
0.0
  0
LINE
  8
0
 62
     0
 10
285.32
 20
89.3202
 30
0.0
 11
287.045
 21
89.3202
 31
0.0
  0
LINE
  8
0
 62
     0
 10
287.045
 20
89.3202
 30
0.0
 11
287.045
 21
88.3405
 31
0.0
  0
LINE
  8
0
 62
     0
 10
287.045
 20
88.3405
 30
0.0
 11
290.346
 21
88.3405
 31
0.0
  0
LINE
  8
0
 62
     0
 10
290.346
 20
88.3405
 30
0.0
 11
290.346
 21
89.3202
 31
0.0
  0
LINE
  8
0
 62
     0
 10
290.346
 20
89.3202
 30
0.0
 11
292.071
 21
89.3202
 31
0.0
  0
LINE
  8
0
 62
     0
 10
292.071
 20
89.3202
 30
0.0
 11
292.071
 21
95.5904
 31
0.0
  0
LINE
  8
0
 62
     0
 10
292.071
 20
95.5904
 30
0.0
 11
292.895
 21
95.5904
 31
0.0
  0
LINE
  8
0
 62
     0
 10
292.895
 20
95.5904
 30
0.0
 11
292.895
 21
98.3904
 31
0.0
  0
LINE
  8
0
 62
     0
 10
292.895
 20
98.3904
 30
0.0
 11
292.071
 21
98.3904
 31
0.0
  0
LINE
  8
0
 62
     0
 10
292.071
 20
98.3904
 30
0.0
 11
292.071
 21
101.621
 31
0.0
  0
LINE
  8
0
 62
     0
 10
292.071
 20
101.621
 30
0.0
 11
290.346
 21
101.621
 31
0.0
  0
LINE
  8
0
 62
     0
 10
290.346
 20
101.621
 30
0.0
 11
290.346
 21
102.541
 31
0.0
  0
LINE
  8
0
 62
     0
 10
290.346
 20
102.541
 30
0.0
 11
287.045
 21
102.541
 31
0.0
  0
LINE
  8
0
 62
     0
 10
287.045
 20
102.541
 30
0.0
 11
287.045
 21
101.621
 31
0.0
  0
LINE
  8
0
 62
     0
 10
287.045
 20
101.621
 30
0.0
 11
285.32
 21
101.621
 31
0.0
  0
LINE
  8
0
 62
     0
 10
285.32
 20
101.621
 30
0.0
 11
285.32
 21
98.3904
 31
0.0
  0
LINE
  8
0
 62
     0
 10
285.32
 20
98.3904
 30
0.0
 11
283.796
 21
98.3904
 31
0.0
  0
LINE
  8
0
 62
     0
 10
283.796
 20
98.3904
 30
0.0
 11
283.796
 21
103.091
 31
0.0
  0
LINE
  8
0
 62
     0
 10
283.796
 20
103.091
 30
0.0
 11
269.795
 21
103.091
 31
0.0
  0
LINE
  8
0
 62
     0
 10
12.6201
 20
103.091
 30
0.0
 11
26.6209
 21
103.091
 31
0.0
  0
LINE
  8
0
 62
     0
 10
26.6209
 20
103.091
 30
0.0
 11
26.6209
 21
89.0901
 31
0.0
  0
LINE
  8
0
 62
     0
 10
26.6209
 20
89.0901
 30
0.0
 11
12.6201
 21
89.0901
 31
0.0
  0
LINE
  8
0
 62
     0
 10
12.6201
 20
89.0901
 30
0.0
 11
12.6201
 21
103.091
 31
0.0
  0
LINE
  8
0
 62
     0
 10
31.6701
 20
103.091
 30
0.0
 11
45.671
 21
103.091
 31
0.0
  0
LINE
  8
0
 62
     0
 10
45.671
 20
103.091
 30
0.0
 11
45.671
 21
89.0901
 31
0.0
  0
LINE
  8
0
 62
     0
 10
45.671
 20
89.0901
 30
0.0
 11
31.6701
 21
89.0901
 31
0.0
  0
LINE
  8
0
 62
     0
 10
31.6701
 20
89.0901
 30
0.0
 11
31.6701
 21
103.091
 31
0.0
  0
LINE
  8
0
 62
     0
 10
50.7199
 20
103.091
 30
0.0
 11
64.721
 21
103.091
 31
0.0
  0
LINE
  8
0
 62
     0
 10
64.721
 20
103.091
 30
0.0
 11
64.721
 21
89.0901
 31
0.0
  0
LINE
  8
0
 62
     0
 10
64.721
 20
89.0901
 30
0.0
 11
50.7199
 21
89.0901
 31
0.0
  0
LINE
  8
0
 62
     0
 10
50.7199
 20
89.0901
 30
0.0
 11
50.7199
 21
103.091
 31
0.0
  0
LINE
  8
0
 62
     0
 10
69.7699
 20
103.091
 30
0.0
 11
83.771
 21
103.091
 31
0.0
  0
LINE
  8
0
 62
     0
 10
83.771
 20
103.091
 30
0.0
 11
83.771
 21
89.0901
 31
0.0
  0
LINE
  8
0
 62
     0
 10
83.771
 20
89.0901
 30
0.0
 11
69.7699
 21
89.0901
 31
0.0
  0
LINE
  8
0
 62
     0
 10
69.7699
 20
89.0901
 30
0.0
 11
69.7699
 21
103.091
 31
0.0
  0
LINE
  8
0
 62
     0
 10
88.8199
 20
103.091
 30
0.0
 11
102.821
 21
103.091
 31
0.0
  0
LINE
  8
0
 62
     0
 10
102.821
 20
103.091
 30
0.0
 11
102.821
 21
89.0901
 31
0.0
  0
LINE
  8
0
 62
     0
 10
102.821
 20
89.0901
 30
0.0
 11
88.8199
 21
89.0901
 31
0.0
  0
LINE
  8
0
 62
     0
 10
88.8199
 20
89.0901
 30
0.0
 11
88.8199
 21
103.091
 31
0.0
  0
LINE
  8
0
 62
     0
 10
107.87
 20
103.091
 30
0.0
 11
121.87
 21
103.091
 31
0.0
  0
LINE
  8
0
 62
     0
 10
121.87
 20
103.091
 30
0.0
 11
121.87
 21
89.0901
 31
0.0
  0
LINE
  8
0
 62
     0
 10
121.87
 20
89.0901
 30
0.0
 11
107.87
 21
89.0901
 31
0.0
  0
LINE
  8
0
 62
     0
 10
107.87
 20
89.0901
 30
0.0
 11
107.87
 21
103.091
 31
0.0
  0
LINE
  8
0
 62
     0
 10
126.92
 20
103.091
 30
0.0
 11
140.921
 21
103.091
 31
0.0
  0
LINE
  8
0
 62
     0
 10
140.921
 20
103.091
 30
0.0
 11
140.921
 21
89.0901
 31
0.0
  0
LINE
  8
0
 62
     0
 10
140.921
 20
89.0901
 30
0.0
 11
126.92
 21
89.0901
 31
0.0
  0
LINE
  8
0
 62
     0
 10
126.92
 20
89.0901
 30
0.0
 11
126.92
 21
103.091
 31
0.0
  0
LINE
  8
0
 62
     0
 10
145.97
 20
103.091
 30
0.0
 11
159.971
 21
103.091
 31
0.0
  0
LINE
  8
0
 62
     0
 10
159.971
 20
103.091
 30
0.0
 11
159.971
 21
89.0901
 31
0.0
  0
LINE
  8
0
 62
     0
 10
159.971
 20
89.0901
 30
0.0
 11
145.97
 21
89.0901
 31
0.0
  0
LINE
  8
0
 62
     0
 10
145.97
 20
89.0901
 30
0.0
 11
145.97
 21
103.091
 31
0.0
  0
LINE
  8
0
 62
     0
 10
165.02
 20
103.091
 30
0.0
 11
179.021
 21
103.091
 31
0.0
  0
LINE
  8
0
 62
     0
 10
179.021
 20
103.091
 30
0.0
 11
179.021
 21
89.0901
 31
0.0
  0
LINE
  8
0
 62
     0
 10
179.021
 20
89.0901
 30
0.0
 11
165.02
 21
89.0901
 31
0.0
  0
LINE
  8
0
 62
     0
 10
165.02
 20
89.0901
 30
0.0
 11
165.02
 21
103.091
 31
0.0
  0
LINE
  8
0
 62
     0
 10
184.07
 20
103.091
 30
0.0
 11
198.071
 21
103.091
 31
0.0
  0
LINE
  8
0
 62
     0
 10
198.071
 20
103.091
 30
0.0
 11
198.071
 21
89.0901
 31
0.0
  0
LINE
  8
0
 62
     0
 10
198.071
 20
89.0901
 30
0.0
 11
184.07
 21
89.0901
 31
0.0
  0
LINE
  8
0
 62
     0
 10
184.07
 20
89.0901
 30
0.0
 11
184.07
 21
103.091
 31
0.0
  0
LINE
  8
0
 62
     0
 10
203.12
 20
103.091
 30
0.0
 11
217.121
 21
103.091
 31
0.0
  0
LINE
  8
0
 62
     0
 10
217.121
 20
103.091
 30
0.0
 11
217.121
 21
89.0901
 31
0.0
  0
LINE
  8
0
 62
     0
 10
217.121
 20
89.0901
 30
0.0
 11
203.12
 21
89.0901
 31
0.0
  0
LINE
  8
0
 62
     0
 10
203.12
 20
89.0901
 30
0.0
 11
203.12
 21
103.091
 31
0.0
  0
LINE
  8
0
 62
     0
 10
222.17
 20
103.091
 30
0.0
 11
236.171
 21
103.091
 31
0.0
  0
LINE
  8
0
 62
     0
 10
236.171
 20
103.091
 30
0.0
 11
236.171
 21
89.0901
 31
0.0
  0
LINE
  8
0
 62
     0
 10
236.171
 20
89.0901
 30
0.0
 11
222.17
 21
89.0901
 31
0.0
  0
LINE
  8
0
 62
     0
 10
222.17
 20
89.0901
 30
0.0
 11
222.17
 21
103.091
 31
0.0
  0
LINE
  8
0
 62
     0
 10
241.22
 20
103.091
 30
0.0
 11
255.221
 21
103.091
 31
0.0
  0
LINE
  8
0
 62
     0
 10
255.221
 20
103.091
 30
0.0
 11
255.221
 21
89.0901
 31
0.0
  0
LINE
  8
0
 62
     0
 10
255.221
 20
89.0901
 30
0.0
 11
241.22
 21
89.0901
 31
0.0
  0
LINE
  8
0
 62
     0
 10
241.22
 20
89.0901
 30
0.0
 11
241.22
 21
103.091
 31
0.0
  0
LINE
  8
0
 62
     0
 10
12.6201
 20
122.141
 30
0.0
 11
26.6209
 21
122.141
 31
0.0
  0
LINE
  8
0
 62
     0
 10
26.6209
 20
122.141
 30
0.0
 11
26.6209
 21
108.14
 31
0.0
  0
LINE
  8
0
 62
     0
 10
26.6209
 20
108.14
 30
0.0
 11
12.6201
 21
108.14
 31
0.0
  0
LINE
  8
0
 62
     0
 10
12.6201
 20
108.14
 30
0.0
 11
12.6201
 21
122.141
 31
0.0
  0
LINE
  8
0
 62
     0
 10
31.6701
 20
122.141
 30
0.0
 11
45.671
 21
122.141
 31
0.0
  0
LINE
  8
0
 62
     0
 10
45.671
 20
122.141
 30
0.0
 11
45.671
 21
108.14
 31
0.0
  0
LINE
  8
0
 62
     0
 10
45.671
 20
108.14
 30
0.0
 11
31.6701
 21
108.14
 31
0.0
  0
LINE
  8
0
 62
     0
 10
31.6701
 20
108.14
 30
0.0
 11
31.6701
 21
122.141
 31
0.0
  0
LINE
  8
0
 62
     0
 10
50.7199
 20
122.141
 30
0.0
 11
64.721
 21
122.141
 31
0.0
  0
LINE
  8
0
 62
     0
 10
64.721
 20
122.141
 30
0.0
 11
64.721
 21
108.14
 31
0.0
  0
LINE
  8
0
 62
     0
 10
64.721
 20
108.14
 30
0.0
 11
50.7199
 21
108.14
 31
0.0
  0
LINE
  8
0
 62
     0
 10
50.7199
 20
108.14
 30
0.0
 11
50.7199
 21
122.141
 31
0.0
  0
LINE
  8
0
 62
     0
 10
69.7699
 20
122.141
 30
0.0
 11
83.771
 21
122.141
 31
0.0
  0
LINE
  8
0
 62
     0
 10
83.771
 20
122.141
 30
0.0
 11
83.771
 21
108.14
 31
0.0
  0
LINE
  8
0
 62
     0
 10
83.771
 20
108.14
 30
0.0
 11
69.7699
 21
108.14
 31
0.0
  0
LINE
  8
0
 62
     0
 10
69.7699
 20
108.14
 30
0.0
 11
69.7699
 21
122.141
 31
0.0
  0
LINE
  8
0
 62
     0
 10
88.8199
 20
122.141
 30
0.0
 11
102.821
 21
122.141
 31
0.0
  0
LINE
  8
0
 62
     0
 10
102.821
 20
122.141
 30
0.0
 11
102.821
 21
108.14
 31
0.0
  0
LINE
  8
0
 62
     0
 10
102.821
 20
108.14
 30
0.0
 11
88.8199
 21
108.14
 31
0.0
  0
LINE
  8
0
 62
     0
 10
88.8199
 20
108.14
 30
0.0
 11
88.8199
 21
122.141
 31
0.0
  0
LINE
  8
0
 62
     0
 10
107.87
 20
122.141
 30
0.0
 11
121.87
 21
122.141
 31
0.0
  0
LINE
  8
0
 62
     0
 10
121.87
 20
122.141
 30
0.0
 11
121.87
 21
108.14
 31
0.0
  0
LINE
  8
0
 62
     0
 10
121.87
 20
108.14
 30
0.0
 11
107.87
 21
108.14
 31
0.0
  0
LINE
  8
0
 62
     0
 10
107.87
 20
108.14
 30
0.0
 11
107.87
 21
122.141
 31
0.0
  0
LINE
  8
0
 62
     0
 10
126.92
 20
122.141
 30
0.0
 11
140.921
 21
122.141
 31
0.0
  0
LINE
  8
0
 62
     0
 10
140.921
 20
122.141
 30
0.0
 11
140.921
 21
108.14
 31
0.0
  0
LINE
  8
0
 62
     0
 10
140.921
 20
108.14
 30
0.0
 11
126.92
 21
108.14
 31
0.0
  0
LINE
  8
0
 62
     0
 10
126.92
 20
108.14
 30
0.0
 11
126.92
 21
122.141
 31
0.0
  0
LINE
  8
0
 62
     0
 10
145.97
 20
122.141
 30
0.0
 11
159.971
 21
122.141
 31
0.0
  0
LINE
  8
0
 62
     0
 10
159.971
 20
122.141
 30
0.0
 11
159.971
 21
108.14
 31
0.0
  0
LINE
  8
0
 62
     0
 10
159.971
 20
108.14
 30
0.0
 11
145.97
 21
108.14
 31
0.0
  0
LINE
  8
0
 62
     0
 10
145.97
 20
108.14
 30
0.0
 11
145.97
 21
122.141
 31
0.0
  0
LINE
  8
0
 62
     0
 10
165.02
 20
122.141
 30
0.0
 11
179.021
 21
122.141
 31
0.0
  0
LINE
  8
0
 62
     0
 10
179.021
 20
122.141
 30
0.0
 11
179.021
 21
108.14
 31
0.0
  0
LINE
  8
0
 62
     0
 10
179.021
 20
108.14
 30
0.0
 11
165.02
 21
108.14
 31
0.0
  0
LINE
  8
0
 62
     0
 10
165.02
 20
108.14
 30
0.0
 11
165.02
 21
122.141
 31
0.0
  0
LINE
  8
0
 62
     0
 10
184.07
 20
122.141
 30
0.0
 11
198.071
 21
122.141
 31
0.0
  0
LINE
  8
0
 62
     0
 10
198.071
 20
122.141
 30
0.0
 11
198.071
 21
108.14
 31
0.0
  0
LINE
  8
0
 62
     0
 10
198.071
 20
108.14
 30
0.0
 11
184.07
 21
108.14
 31
0.0
  0
LINE
  8
0
 62
     0
 10
184.07
 20
108.14
 30
0.0
 11
184.07
 21
122.141
 31
0.0
  0
LINE
  8
0
 62
     0
 10
203.12
 20
122.141
 30
0.0
 11
217.121
 21
122.141
 31
0.0
  0
LINE
  8
0
 62
     0
 10
217.121
 20
122.141
 30
0.0
 11
217.121
 21
108.14
 31
0.0
  0
LINE
  8
0
 62
     0
 10
217.121
 20
108.14
 30
0.0
 11
203.12
 21
108.14
 31
0.0
  0
LINE
  8
0
 62
     0
 10
203.12
 20
108.14
 30
0.0
 11
203.12
 21
122.141
 31
0.0
  0
LINE
  8
0
 62
     0
 10
222.17
 20
122.141
 30
0.0
 11
236.171
 21
122.141
 31
0.0
  0
LINE
  8
0
 62
     0
 10
236.171
 20
122.141
 30
0.0
 11
236.171
 21
108.14
 31
0.0
  0
LINE
  8
0
 62
     0
 10
236.171
 20
108.14
 30
0.0
 11
222.17
 21
108.14
 31
0.0
  0
LINE
  8
0
 62
     0
 10
222.17
 20
108.14
 30
0.0
 11
222.17
 21
122.141
 31
0.0
  0
LINE
  8
0
 62
     0
 10
241.22
 20
122.141
 30
0.0
 11
255.221
 21
122.141
 31
0.0
  0
LINE
  8
0
 62
     0
 10
255.221
 20
122.141
 30
0.0
 11
255.221
 21
108.14
 31
0.0
  0
LINE
  8
0
 62
     0
 10
255.221
 20
108.14
 30
0.0
 11
241.22
 21
108.14
 31
0.0
  0
LINE
  8
0
 62
     0
 10
241.22
 20
108.14
 30
0.0
 11
241.22
 21
122.141
 31
0.0
  0
LINE
  8
0
 62
     0
 10
260.27
 20
122.141
 30
0.0
 11
274.271
 21
122.141
 31
0.0
  0
LINE
  8
0
 62
     0
 10
274.271
 20
122.141
 30
0.0
 11
274.271
 21
108.14
 31
0.0
  0
LINE
  8
0
 62
     0
 10
274.271
 20
108.14
 30
0.0
 11
260.27
 21
108.14
 31
0.0
  0
LINE
  8
0
 62
     0
 10
260.27
 20
108.14
 30
0.0
 11
260.27
 21
122.141
 31
0.0
  0
LINE
  8
0
 62
     0
 10
279.32
 20
122.141
 30
0.0
 11
293.321
 21
122.141
 31
0.0
  0
LINE
  8
0
 62
     0
 10
293.321
 20
122.141
 30
0.0
 11
293.321
 21
108.14
 31
0.0
  0
LINE
  8
0
 62
     0
 10
293.321
 20
108.14
 30
0.0
 11
279.32
 21
108.14
 31
0.0
  0
LINE
  8
0
 62
     0
 10
279.32
 20
108.14
 30
0.0
 11
279.32
 21
122.141
 31
0.0
  0
ENDSEC
  0
EOF
